<?xml version="1.0" standalone="no"?>
<!DOCTYPE svg PUBLIC "-//W3C//DTD SVG 20010904//EN"
 "http://www.w3.org/TR/2001/REC-SVG-20010904/DTD/svg10.dtd">
<svg version="1.0" xmlns="http://www.w3.org/2000/svg"
 width="225.000000pt" height="225.000000pt" viewBox="0 0 225.000000 225.000000"
 preserveAspectRatio="xMidYMid meet">

<g transform="translate(0.000000,225.000000) scale(0.100000,-0.100000)"
fill="#ffffff" stroke="none">
<path d="M295 2216 c-111 -28 -192 -93 -242 -194 l-28 -57 0 -840 0 -840 28
-57 c51 -104 139 -172 255 -197 74 -15 1560 -15 1634 0 116 25 204 93 255 197
l28 57 0 840 0 840 -28 57 c-51 104 -139 172 -255 197 -78 16 -1579 14 -1647
-3z m999 -389 c31 -31 24 -73 -14 -95 -24 -14 -29 -29 -64 -191 -21 -97 -40
-183 -42 -191 -2 -10 10 -21 34 -31 36 -15 38 -15 142 28 58 23 116 43 130 43
39 0 84 -33 102 -76 98 -231 140 -331 166 -394 16 -41 46 -112 66 -157 l35
-83 -52 0 -52 0 -19 53 c-10 28 -51 129 -90 222 -40 94 -85 201 -101 239 -24
57 -34 71 -62 83 -28 11 -42 12 -71 2 -113 -36 -921 -364 -939 -382 -31 -27
-30 -77 2 -145 14 -30 25 -58 25 -64 0 -5 -21 -8 -47 -6 l-47 3 -33 75 c-37
87 -40 123 -15 165 17 26 58 46 347 160 312 124 329 132 341 162 8 18 14 35
14 38 0 3 -68 50 -152 104 -120 79 -155 98 -169 90 -27 -14 -47 -11 -69 11
-41 41 -13 100 46 100 35 0 54 -21 54 -59 0 -16 39 -47 155 -125 l156 -103 37
19 37 18 42 192 c42 191 42 191 22 216 -25 32 -24 48 6 77 30 31 49 31 79 2z
m122 -659 c30 -14 35 -25 140 -276 35 -85 64 -167 64 -183 l0 -29 -509 0 -509
0 -21 49 c-26 60 -27 92 -4 120 12 14 156 77 403 176 212 85 390 155 397 155
7 0 24 -6 39 -12z m153 -92 c23 -28 -17 -68 -45 -45 -15 12 -19 41 -7 52 11
12 40 8 52 -7z m31 -102 c0 -19 -28 -30 -42 -16 -8 8 -8 15 1 26 14 17 41 10
41 -10z m20 -70 c0 -17 -26 -19 -36 -3 -7 12 15 31 28 23 4 -3 8 -12 8 -20z
m-1140 -289 c0 -11 -12 -15 -50 -15 -39 0 -50 -3 -50 -16 0 -13 8 -15 35 -12
28 3 35 1 33 -11 -2 -12 -13 -15 -36 -13 -30 3 -32 1 -32 -27 0 -23 -5 -31
-17 -31 -15 0 -18 10 -18 70 l0 70 68 0 c53 0 67 -3 67 -15z m768 3 c18 -18
14 -56 -7 -68 -11 -5 -36 -10 -57 -10 -33 0 -36 -2 -32 -25 4 -19 1 -25 -13
-25 -17 0 -19 8 -19 70 l0 70 58 0 c32 0 63 -5 70 -12z m-648 -23 c0 -10 -11
-15 -35 -15 -19 0 -35 -4 -35 -10 0 -5 11 -10 25 -10 16 0 25 -6 25 -15 0 -9
-9 -15 -25 -15 -14 0 -25 -5 -25 -11 0 -7 15 -10 40 -7 31 3 40 0 40 -12 0
-12 -11 -14 -57 -12 l-58 3 0 52 0 52 50 6 c28 3 51 6 53 7 1 1 2 -5 2 -13z
m300 -2 c0 -7 -9 -13 -20 -13 -17 0 -20 -7 -20 -45 0 -36 -3 -45 -18 -45 -14
0 -17 7 -14 45 4 43 3 45 -22 45 -16 0 -24 4 -21 13 3 7 25 12 60 12 37 0 55
-4 55 -12z m129 -8 c17 -17 18 -60 1 -80 -16 -20 -84 -19 -104 1 -17 16 -21
51 -8 70 23 34 80 39 111 9z m586 -19 c-17 -23 -25 -43 -22 -56 4 -15 0 -20
-14 -20 -14 0 -19 7 -19 26 0 14 -9 39 -21 55 -20 28 -20 29 -1 29 11 0 23 -8
27 -17 6 -17 7 -17 18 -2 11 15 46 29 56 23 1 -2 -9 -19 -24 -38z m155 29 c0
-11 -11 -15 -40 -15 -22 0 -40 -4 -40 -10 0 -5 11 -10 25 -10 16 0 25 -6 25
-15 0 -9 -9 -15 -25 -15 -14 0 -25 -4 -25 -10 0 -5 18 -10 40 -10 25 0 40 -5
40 -12 0 -9 -16 -12 -57 -10 l-58 3 3 54 4 54 51 4 c29 2 53 4 55 5 1 1 2 -5
2 -13z m-1088 -27 l16 -33 18 32 c11 18 27 33 37 33 14 0 17 -9 17 -55 0 -42
-3 -55 -15 -55 -10 0 -15 10 -15 33 l0 32 -19 -28 c-24 -37 -30 -37 -46 -7
l-14 25 -1 -27 c0 -18 -5 -28 -15 -28 -12 0 -15 13 -15 55 0 47 3 55 18 55 11
0 25 -13 34 -32z m628 -12 l0 -44 42 -4 c41 -4 41 -3 62 44 12 26 28 48 36 48
8 0 29 -25 47 -55 l32 -55 -24 0 c-14 0 -25 5 -25 10 0 6 -13 10 -30 10 -16 0
-30 -4 -30 -10 0 -6 -30 -10 -70 -10 l-70 0 0 55 c0 42 3 55 15 55 11 0 15
-12 15 -44z m597 28 c3 -9 1 -25 -6 -36 -8 -13 -8 -24 -1 -38 9 -17 8 -20 -7
-20 -10 0 -24 9 -31 20 -7 11 -19 20 -28 20 -11 0 -15 -6 -11 -20 4 -15 0 -20
-14 -20 -16 0 -19 8 -19 55 l0 55 55 0 c42 0 57 -4 62 -16z"/>
<path d="M1152 588 c5 -15 67 -18 71 -3 1 6 -15 11 -37 13 -28 3 -37 0 -34
-10z"/>
<path d="M950 565 c-18 -22 -1 -50 31 -50 20 0 24 5 24 30 0 23 -5 31 -21 33
-11 2 -27 -4 -34 -13z"/>
<path d="M1445 550 c-3 -5 -1 -10 4 -10 6 0 11 5 11 10 0 6 -2 10 -4 10 -3 0
-8 -4 -11 -10z"/>
<path d="M1820 570 c0 -5 14 -10 30 -10 17 0 30 5 30 10 0 6 -13 10 -30 10
-16 0 -30 -4 -30 -10z"/>
</g>
</svg>
