<?xml version="1.0" standalone="no"?>
<!DOCTYPE svg PUBLIC "-//W3C//DTD SVG 20010904//EN"
 "http://www.w3.org/TR/2001/REC-SVG-20010904/DTD/svg10.dtd">
<svg version="1.0" xmlns="http://www.w3.org/2000/svg"
 width="225.000000pt" height="225.000000pt" viewBox="0 0 225.000000 225.000000"
 preserveAspectRatio="xMidYMid meet">

<g transform="translate(0.000000,225.000000) scale(0.100000,-0.100000)"
fill="#ffffff" stroke="none">
<path d="M300 2220 c-117 -43 -223 -145 -267 -257 -17 -45 -18 -96 -18 -843
l0 -795 34 -69 c43 -88 120 -165 208 -208 l68 -33 800 0 800 0 68 33 c88 43
165 120 208 208 l34 69 0 800 0 800 -34 69 c-43 88 -120 165 -208 208 l-68 33
-785 2 c-761 2 -787 2 -840 -17z m305 -345 c0 -13 -8 -21 -22 -23 -17 -3 -23
2 -23 16 0 10 3 22 7 26 13 13 38 1 38 -19z m316 -215 c155 -99 286 -180 290
-180 3 0 35 63 70 140 35 76 64 138 66 136 4 -3 -118 -348 -126 -358 -3 -4
-78 48 -166 115 -88 68 -220 169 -294 225 -73 56 -131 102 -128 102 3 0 132
-81 288 -180z m469 154 c11 -12 10 -18 -3 -32 -16 -15 -18 -15 -34 0 -13 14
-14 20 -3 32 7 9 16 16 20 16 4 0 13 -7 20 -16z m-1132 -796 c3 -13 -3 -18
-22 -18 -20 0 -26 5 -26 21 0 15 5 20 22 17 13 -2 24 -11 26 -20z m632 -103
c0 -118 -1 -125 -20 -125 -19 0 -20 7 -20 125 0 118 1 125 20 125 19 0 20 -7
20 -125z m-511 58 l29 -58 28 58 c22 45 33 57 51 57 23 0 23 -2 23 -120 0
-113 -1 -120 -20 -120 -18 0 -20 7 -21 78 l0 77 -16 -32 c-13 -25 -23 -33 -44
-33 -20 0 -30 8 -43 33 l-16 32 0 -77 c0 -76 -1 -78 -25 -78 l-25 0 0 113 c0
63 3 117 7 120 20 21 44 3 72 -50z m412 38 c17 -13 23 -29 23 -56 0 -48 -31
-75 -85 -75 l-39 0 0 -45 c0 -41 -2 -45 -25 -45 l-25 0 0 113 c0 63 3 117 7
120 3 4 32 7 64 7 41 0 63 -5 80 -19z m969 -21 c0 -13 7 -20 20 -20 11 0 20
-7 20 -15 0 -8 -9 -15 -20 -15 -18 0 -20 -7 -20 -60 0 -53 2 -60 20 -60 24 0
27 -28 4 -37 -8 -3 -26 -1 -40 5 -22 11 -24 17 -24 82 0 63 -2 70 -20 70 -11
0 -20 7 -20 15 0 8 8 15 19 15 10 0 21 9 24 20 3 11 12 20 21 20 9 0 16 -8 16
-20z m-1500 -110 c0 -89 0 -90 -25 -90 -25 0 -25 1 -25 90 0 89 0 90 25 90 25
0 25 -1 25 -90z m798 78 c7 -7 12 -42 12 -89 l0 -76 -47 -6 c-61 -7 -93 11
-93 52 0 35 17 50 65 58 53 8 44 37 -13 41 -28 2 -42 8 -42 18 0 18 100 20
118 2z m107 -58 c10 -39 20 -68 24 -65 3 4 13 34 21 68 12 51 19 63 38 65 12
2 22 0 22 -3 0 -29 -65 -223 -78 -232 -9 -7 -31 -13 -49 -13 -26 0 -33 4 -33
20 0 15 7 20 29 20 39 0 47 14 21 40 -11 11 -20 23 -20 28 0 4 -9 37 -19 75
l-20 67 24 0 c20 0 25 -8 40 -70z m265 50 c12 -12 20 -33 20 -55 l0 -35 -55 0
c-30 0 -55 -4 -55 -8 0 -19 27 -32 67 -32 51 0 60 -25 13 -35 -40 -9 -84 2
-106 26 -24 27 -23 112 1 139 25 27 88 27 115 0z m160 7 c0 -7 -13 -18 -30
-24 -29 -11 -30 -13 -30 -77 0 -59 -2 -66 -20 -66 -19 0 -20 7 -20 89 l0 89
50 0 c33 1 50 -3 50 -11z m286 -62 c10 -41 20 -72 23 -69 3 3 13 36 21 72 13
56 19 68 38 70 27 4 27 6 -2 -92 -17 -59 -28 -82 -45 -90 -31 -14 -49 9 -72
90 -24 85 -24 94 0 94 16 0 23 -14 37 -75z"/>
<path d="M690 957 c0 -40 17 -51 56 -37 20 8 25 16 22 38 -3 23 -8 27 -40 30
-37 3 -38 2 -38 -31z"/>
<path d="M980 855 c-16 -20 -1 -39 26 -33 27 5 32 48 6 48 -11 0 -25 -7 -32
-15z"/>
<path d="M1357 929 c-9 -6 -17 -17 -17 -25 0 -19 61 -16 67 3 6 18 -29 33 -50
22z"/>
</g>
</svg>
