<?xml version="1.0" standalone="no"?>
<!DOCTYPE svg PUBLIC "-//W3C//DTD SVG 20010904//EN"
 "http://www.w3.org/TR/2001/REC-SVG-20010904/DTD/svg10.dtd">
<svg version="1.0" xmlns="http://www.w3.org/2000/svg"
 width="300.000000pt" height="300.000000pt" viewBox="0 0 300.000000 300.000000"
 preserveAspectRatio="xMidYMid meet">

<g transform="translate(0.000000,300.000000) scale(0.100000,-0.100000)"
fill="#ffffff" stroke="none">
<path d="M965 2645 c-42 -41 -29 -95 28 -119 27 -11 51 -47 156 -230 68 -120
119 -221 115 -225 -5 -5 -45 -14 -89 -21 -139 -21 -367 -68 -459 -95 -201 -58
-281 -129 -299 -265 l-6 -45 20 52 c24 63 88 131 150 161 46 22 248 68 429 96
335 53 980 103 1102 86 143 -20 245 -89 289 -194 l22 -54 46 21 c25 12 48 23
50 24 2 1 -10 31 -27 67 -39 83 -105 149 -190 189 -61 29 -78 32 -182 35 -123
5 -362 -11 -525 -33 -55 -8 -102 -12 -104 -9 -3 3 19 104 49 226 47 188 58
222 76 228 42 16 47 81 8 106 -54 36 -115 -23 -84 -81 12 -22 7 -47 -41 -237
-30 -116 -62 -222 -72 -235 -23 -28 -77 -31 -99 -5 -8 9 -68 114 -134 232
-109 198 -118 219 -116 261 3 41 -1 50 -24 68 -35 27 -59 27 -89 -4z"/>
<path d="M2547 1783 c-2 -5 -50 -147 -107 -316 -56 -170 -103 -307 -104 -305
-2 2 -70 135 -152 296 -129 252 -152 292 -171 292 -13 0 -23 -1 -23 -2 0 -2
74 -147 163 -323 143 -282 166 -320 186 -320 22 0 31 24 137 334 63 183 114
337 114 342 0 11 -37 12 -43 2z"/>
<path d="M1618 1722 c-195 -14 -208 -16 -208 -35 0 -19 5 -19 125 -12 l125 7
0 -23 c0 -13 9 -145 20 -294 11 -148 20 -278 20 -287 0 -12 8 -18 24 -18 22 0
23 3 19 48 -15 182 -40 568 -37 574 2 3 58 9 124 13 108 7 120 9 120 26 0 23
-27 23 -332 1z"/>
<path d="M1005 1678 c-66 -5 -120 -10 -121 -11 0 -1 10 -141 22 -312 13 -170
23 -320 23 -333 1 -18 6 -23 24 -20 12 2 21 8 21 13 -1 6 -5 62 -9 126 l-7
117 114 6 c145 9 189 20 233 63 105 102 69 291 -67 348 -41 16 -55 17 -233 3z
m244 -57 c83 -60 95 -189 23 -264 -33 -35 -69 -44 -208 -52 l-111 -7 -10 164
c-6 89 -10 165 -8 166 6 7 190 20 236 18 29 -2 58 -11 78 -25z"/>
<path d="M654 1588 c3 -35 13 -166 21 -293 22 -326 22 -326 53 -306 11 7 9 66
-9 335 l-23 326 -24 0 c-23 0 -23 -2 -18 -62z"/>
<path d="M2495 1059 c-22 -10 -44 -20 -48 -21 -4 -2 -14 -48 -23 -103 -21
-148 -71 -344 -99 -391 -54 -92 -171 -164 -315 -195 -106 -22 -56 -25 81 -4
301 45 371 128 423 500 19 137 29 235 24 234 -1 0 -21 -9 -43 -20z"/>
<path d="M2134 982 c-32 -5 -56 -36 -52 -69 3 -24 11 -31 56 -47 28 -10 52
-23 52 -28 0 -16 -31 -21 -65 -11 -27 9 -35 8 -39 -4 -9 -23 0 -31 44 -38 25
-4 49 -2 67 7 24 11 28 19 28 53 0 38 -2 41 -40 53 -71 22 -69 21 -55 37 9 11
23 14 45 9 24 -4 34 -2 38 10 4 9 5 16 4 16 -1 0 -16 4 -32 8 -17 4 -40 6 -51
4z"/>
<path d="M1890 938 c0 -18 3 -63 7 -100 5 -57 9 -68 24 -68 15 0 19 8 19 35 0
44 21 46 52 5 13 -19 31 -30 46 -30 l24 0 -21 34 c-20 31 -20 35 -5 66 16 30
15 33 -3 58 -17 23 -28 27 -82 30 l-61 3 0 -33z m110 -34 c0 -8 -12 -19 -26
-25 -31 -11 -29 -12 -38 23 -5 22 -2 27 16 30 27 5 48 -8 48 -28z"/>
<path d="M1720 891 c0 -38 3 -83 6 -100 6 -29 9 -31 53 -31 63 0 91 9 84 26
-3 9 -21 14 -49 14 -40 0 -44 2 -44 25 0 22 4 25 40 25 31 0 38 3 34 15 -4 10
-20 15 -45 15 -32 0 -39 4 -39 19 0 15 10 20 45 25 29 5 45 12 45 22 0 11 -15
14 -65 14 l-65 0 0 -69z"/>
<path d="M1527 943 c-16 -16 -5 -32 26 -35 l32 -3 3 -77 c3 -74 4 -78 26 -78
24 0 24 1 19 80 l-6 80 32 6 c17 4 31 13 31 20 0 11 -19 14 -78 14 -43 0 -82
-3 -85 -7z"/>
<path d="M1363 933 c-14 -5 -17 -71 -7 -147 5 -36 11 -46 25 -46 14 0 19 7 19
30 0 40 28 40 55 0 12 -18 29 -30 43 -30 27 0 27 4 0 42 -17 25 -19 34 -10 49
20 31 14 76 -10 93 -21 15 -88 20 -115 9z m92 -63 c0 -21 -5 -25 -30 -25 -25
0 -30 4 -33 28 -3 27 -1 28 30 25 28 -2 33 -7 33 -28z"/>
<path d="M1205 918 c-27 -86 -55 -191 -51 -195 10 -11 46 10 46 27 0 12 9 19
31 22 24 4 34 0 46 -19 17 -26 59 -33 49 -8 -45 118 -80 185 -98 185 -10 0
-20 -6 -23 -12z m44 -79 c14 -41 15 -39 -15 -39 -20 0 -25 4 -20 16 3 9 6 24
6 35 0 30 17 22 29 -12z"/>
<path d="M1039 863 l-25 -58 -29 53 c-22 40 -34 52 -52 52 -21 0 -23 -4 -23
-47 0 -27 3 -72 6 -100 6 -44 10 -53 26 -53 18 0 19 6 16 55 -1 30 0 55 3 55
3 0 14 -16 25 -35 10 -19 24 -35 32 -35 7 0 21 19 31 43 l18 42 7 -57 c6 -50
10 -58 28 -58 20 0 21 4 14 77 -3 42 -6 87 -6 100 0 17 -6 23 -23 23 -19 0
-29 -11 -48 -57z"/>
<path d="M752 884 c-25 -17 -30 -65 -9 -82 6 -6 26 -14 42 -18 36 -8 57 -23
49 -35 -7 -12 -51 -11 -74 1 -15 8 -20 6 -25 -11 -9 -27 -4 -30 49 -36 32 -4
53 -1 71 11 49 32 21 106 -41 106 -30 0 -52 27 -30 36 9 3 28 4 42 1 30 -5 55
27 28 37 -29 11 -79 6 -102 -10z"/>
</g>
</svg>
