<?xml version="1.0" standalone="no"?>
<!DOCTYPE svg PUBLIC "-//W3C//DTD SVG 20010904//EN"
 "http://www.w3.org/TR/2001/REC-SVG-20010904/DTD/svg10.dtd">
<svg version="1.0" xmlns="http://www.w3.org/2000/svg"
 width="225.000000pt" height="225.000000pt" viewBox="0 0 225.000000 225.000000"
 preserveAspectRatio="xMidYMid meet">

<g transform="translate(0.000000,225.000000) scale(0.100000,-0.100000)"
fill="#ffffff" stroke="none">
<path d="M320 2239 c-187 -22 -288 -127 -310 -321 -14 -115 -13 -1481 1 -1588
24 -198 123 -298 316 -320 117 -13 1479 -13 1596 0 142 16 234 76 283 184 42
91 46 187 42 1001 -4 843 -2 810 -71 912 -38 54 -114 105 -186 124 -56 15
-1553 22 -1671 8z m420 -684 l0 -135 105 0 105 0 0 -95 0 -95 -106 0 -105 0 3
-206 3 -206 28 -24 c33 -28 89 -32 142 -10 19 8 37 11 40 7 2 -5 18 -46 35
-92 30 -79 30 -84 13 -97 -58 -42 -233 -56 -331 -25 -76 24 -145 88 -171 159
-19 49 -21 77 -21 274 l0 220 -45 0 -45 0 0 95 0 95 45 0 45 0 0 135 0 135
130 0 130 0 0 -135z m1176 -187 c-3 -13 -70 -198 -149 -413 l-144 -390 -130
-3 -130 -3 -123 273 c-68 150 -141 309 -161 353 -21 44 -36 82 -34 84 4 4 116
-88 341 -281 l91 -77 104 239 104 240 119 0 c118 0 118 0 112 -22z"/>
</g>
</svg> 