<?xml version="1.0" standalone="no"?>
<!DOCTYPE svg PUBLIC "-//W3C//DTD SVG 20010904//EN"
 "http://www.w3.org/TR/2001/REC-SVG-20010904/DTD/svg10.dtd">
<svg version="1.0" xmlns="http://www.w3.org/2000/svg"
 width="225.000000pt" height="225.000000pt" viewBox="0 0 225.000000 225.000000"
 preserveAspectRatio="xMidYMid meet">

<g transform="translate(0.000000,225.000000) scale(0.100000,-0.100000)"
fill="#ffffff" stroke="none">
<path d="M0 1125 l0 -1125 1125 0 1125 0 0 1125 0 1125 -1125 0 -1125 0 0
-1125z m1335 795 c283 -73 511 -288 601 -565 39 -119 45 -290 14 -421 -69
-302 -312 -544 -625 -624 -111 -29 -290 -29 -408 -1 -207 49 -423 203 -530
377 -141 229 -160 531 -47 771 85 182 242 337 425 418 58 25 182 60 240 67 77
10 254 -2 330 -22z"/>
<path d="M795 1511 c-11 -5 -29 -19 -40 -31 -19 -21 -20 -36 -20 -415 l0 -393
23 -25 c13 -14 37 -28 54 -31 43 -8 94 17 388 189 69 40 169 99 223 130 100
58 117 77 117 133 0 35 -33 88 -59 97 -11 3 -71 36 -133 72 -288 169 -495 283
-513 282 -11 0 -29 -4 -40 -8z"/>
</g>
</svg>
